<svg xmlns="http://www.w3.org/2000/svg" viewBox="0 0 453.09 424.99"><defs><style>.cls-1,.cls-2{fill:#f8f6f2;stroke:#231f20;stroke-miterlimit:10;}.cls-2{font-size:205px;font-family:Alfarn2, "Alfarn 2";}</style></defs><g id="Layer_2" data-name="Layer 2"><g id="Layer_1-2" data-name="Layer 1"><path class="cls-1" d="M47.94,157V406.31c0,10-7.72,18.18-17.25,18.18H17.75C8.22,424.49.5,416.35.5,406.31V157c0-10,7.72-18.18,17.25-18.18H30.69C40.22,138.77,47.94,146.91,47.94,157Z"/><path class="cls-1" d="M214.05,156.76V406.5c0,9.93-7.63,18-17.06,18H183.68c-9.42,0-17.07-8.06-17.07-18V156.76c0-9.93,7.65-18,17.07-18H197C206.42,138.77,214.05,146.83,214.05,156.76Z"/><polygon class="cls-1" points="166.61 320.64 166.61 401.29 47.94 243.01 47.94 162.36 166.61 320.64"/><text class="cls-2" transform="translate(226.82 174.75) scale(0.95 1)">2</text></g></g></svg>